<svg width="66" height="71" viewBox="0 0 66 71" fill="none" xmlns="http://www.w3.org/2000/svg">
<path d="M3.58463 57.612C4.51263 57.612 5.30863 57.78 5.97263 58.116C6.63663 58.452 7.14463 58.936 7.49663 59.568C7.84863 60.2 8.02463 60.952 8.02463 61.824C8.02463 62.688 7.84863 63.436 7.49663 64.068C7.14463 64.692 6.63663 65.172 5.97263 65.508C5.30863 65.836 4.51263 66 3.58463 66H1.10063V57.612H3.58463ZM3.58463 65.304C4.75263 65.304 5.64063 65 6.24863 64.392C6.86463 63.776 7.17263 62.92 7.17263 61.824C7.17263 60.72 6.86463 59.86 6.24863 59.244C5.64063 58.62 4.75263 58.308 3.58463 58.308H1.94063V65.304H3.58463ZM13.3413 66.084C12.5653 66.084 11.8613 65.904 11.2293 65.544C10.5973 65.176 10.0973 64.668 9.72928 64.02C9.36928 63.364 9.18928 62.624 9.18928 61.8C9.18928 60.976 9.36928 60.24 9.72928 59.592C10.0973 58.936 10.5973 58.428 11.2293 58.068C11.8613 57.7 12.5653 57.516 13.3413 57.516C14.1253 57.516 14.8333 57.7 15.4653 58.068C16.0973 58.428 16.5933 58.936 16.9533 59.592C17.3133 60.24 17.4933 60.976 17.4933 61.8C17.4933 62.624 17.3133 63.364 16.9533 64.02C16.5933 64.668 16.0973 65.176 15.4653 65.544C14.8333 65.904 14.1253 66.084 13.3413 66.084ZM13.3413 65.352C13.9653 65.352 14.5253 65.208 15.0213 64.92C15.5173 64.632 15.9093 64.22 16.1973 63.684C16.4853 63.14 16.6293 62.512 16.6293 61.8C16.6293 61.088 16.4853 60.464 16.1973 59.928C15.9093 59.392 15.5173 58.98 15.0213 58.692C14.5253 58.404 13.9653 58.26 13.3413 58.26C12.7173 58.26 12.1573 58.404 11.6613 58.692C11.1653 58.98 10.7733 59.392 10.4853 59.928C10.1973 60.464 10.0533 61.088 10.0533 61.8C10.0533 62.512 10.1973 63.14 10.4853 63.684C10.7733 64.22 11.1653 64.632 11.6613 64.92C12.1573 65.208 12.7173 65.352 13.3413 65.352ZM18.6463 61.8C18.6463 60.976 18.8263 60.24 19.1863 59.592C19.5463 58.936 20.0383 58.428 20.6623 58.068C21.2863 57.7 21.9823 57.516 22.7503 57.516C23.6863 57.516 24.4863 57.74 25.1503 58.188C25.8223 58.628 26.3103 59.252 26.6143 60.06H25.6303C25.3903 59.492 25.0223 59.048 24.5263 58.728C24.0383 58.408 23.4463 58.248 22.7503 58.248C22.1343 58.248 21.5783 58.392 21.0823 58.68C20.5943 58.968 20.2103 59.384 19.9303 59.928C19.6503 60.464 19.5103 61.088 19.5103 61.8C19.5103 62.512 19.6503 63.136 19.9303 63.672C20.2103 64.208 20.5943 64.62 21.0823 64.908C21.5783 65.196 22.1343 65.34 22.7503 65.34C23.4463 65.34 24.0383 65.184 24.5263 64.872C25.0223 64.552 25.3903 64.112 25.6303 63.552H26.6143C26.3103 64.352 25.8223 64.972 25.1503 65.412C24.4783 65.852 23.6783 66.072 22.7503 66.072C21.9823 66.072 21.2863 65.892 20.6623 65.532C20.0383 65.164 19.5463 64.656 19.1863 64.008C18.8263 63.36 18.6463 62.624 18.6463 61.8ZM29.0921 57.612V62.892C29.0921 63.724 29.2881 64.34 29.6801 64.74C30.0801 65.14 30.6241 65.34 31.3121 65.34C32.0001 65.34 32.5361 65.144 32.9201 64.752C33.3121 64.352 33.5081 63.732 33.5081 62.892V57.612H34.3481V62.88C34.3481 63.944 34.0641 64.744 33.4961 65.28C32.9361 65.816 32.2041 66.084 31.3001 66.084C30.3961 66.084 29.6601 65.816 29.0921 65.28C28.5321 64.744 28.2521 63.944 28.2521 62.88V57.612H29.0921ZM44.4177 57.72V66H43.5777V59.388L40.6257 66H40.0137L37.0617 59.412V66H36.2217V57.72H37.1097L40.3137 64.896L43.5177 57.72H44.4177ZM47.1633 58.296V61.428H50.3433V62.124H47.1633V65.304H50.7033V66H46.3233V57.6H50.7033V58.296H47.1633ZM58.6824 66H57.8424L53.1984 58.944V66H52.3584V57.612H53.1984L57.8424 64.656V57.612H58.6824V66ZM65.493 57.612V58.308H63.165V66H62.325V58.308H59.985V57.612H65.493Z" fill="#F29400"/>
<g clip-path="url(#clip0)">
<path d="M41.5714 12C40.6246 12 39.8571 11.2325 39.8571 10.2857V0H19.2857C16.4454 0 14.1428 2.30253 14.1428 5.14285V42.8571C14.1428 45.6975 16.4454 48 19.2857 48H46.7143C49.5546 48 51.8571 45.6975 51.8571 42.8571V12H41.5714Z" fill="#F29400"/>
<path d="M43.2856 1.00458V8.5714H50.8526L43.2856 1.00458Z" fill="#F29400"/>
</g>
<defs>
<clipPath id="clip0">
<rect width="48" height="48" fill="white" transform="translate(9)"/>
</clipPath>
</defs>
</svg>
