<svg width="24" height="24" viewBox="0 0 24 24" fill="none" xmlns="http://www.w3.org/2000/svg">
<g clip-path="url(#clip0)">
<path d="M20.9165 0.905636C19.7068 -0.301879 17.7479 -0.301879 16.5383 0.905636L15.4423 2.00759L3.77609 13.6676L3.7513 13.6926C3.7453 13.6986 3.7453 13.705 3.7389 13.705C3.72651 13.7236 3.70791 13.742 3.69571 13.7606C3.69571 13.7668 3.68932 13.7668 3.68932 13.773C3.67692 13.7916 3.67092 13.804 3.65833 13.8226C3.65232 13.8288 3.65232 13.8348 3.64612 13.8412C3.63992 13.8598 3.63373 13.8722 3.62733 13.8908C3.62733 13.8968 3.62133 13.8968 3.62133 13.9032L1.03294 21.6867C0.95701 21.9083 1.01473 22.1538 1.18151 22.3182C1.29869 22.4338 1.45675 22.4985 1.6212 22.498C1.68841 22.4968 1.75505 22.4863 1.81935 22.467L9.59692 19.8724C9.60293 19.8724 9.60293 19.8724 9.60932 19.8664C9.62888 19.8606 9.64767 19.8522 9.66491 19.8414C9.66975 19.8408 9.67401 19.8387 9.6775 19.8354C9.6959 19.823 9.7207 19.8104 9.73929 19.798C9.75769 19.7858 9.77648 19.7672 9.79508 19.7548C9.80127 19.7484 9.80728 19.7484 9.80728 19.7424C9.81367 19.7362 9.82607 19.7302 9.83227 19.7176L22.5945 6.95541C23.802 5.74577 23.802 3.7869 22.5945 2.57745L20.9165 0.905636ZM9.39877 18.4171L5.08898 14.1075L15.8758 3.32067L20.1856 7.63026L9.39877 18.4171ZM4.48193 15.2531L8.24704 19.018L2.59337 20.9003L4.48193 15.2531ZM21.7215 6.08842L21.065 6.75106L16.755 2.44108L17.4179 1.77863C18.1429 1.0542 19.3181 1.0542 20.0433 1.77863L21.7275 3.46284C22.4471 4.19115 22.4443 5.3636 21.7215 6.08842Z" fill="#F29400"/>
</g>
<defs>
<clipPath id="clip0">
<rect width="24" height="24" fill="white"/>
</clipPath>
</defs>
</svg>
